<svg xmlns="http://www.w3.org/2000/svg" viewBox="0 0 500 500"><g id="freepik--Bed--inject-188"><path d="M56,388.27c0,.1-1.06,0-2.74.3a15,15,0,0,0-2.86.76A17.5,17.5,0,0,0,47.18,391a17.17,17.17,0,0,0-2.76,2.35,15.23,15.23,0,0,0-1.8,2.35c-.89,1.44-1.22,2.45-1.31,2.42s0-.27.17-.73a9.34,9.34,0,0,1,.83-1.88A13.1,13.1,0,0,1,44.07,393a14.88,14.88,0,0,1,6.16-4.12,13.35,13.35,0,0,1,3-.68,10.55,10.55,0,0,1,2-.05A2.45,2.45,0,0,1,56,388.27Z" style="fill:#263238"></path><path d="M41.31,385.19c0,.09-1-.17-2.48-.34a18.7,18.7,0,0,0-11.48,2.43c-1.33.77-2.07,1.38-2.13,1.31A7.65,7.65,0,0,1,27.15,387a16.56,16.56,0,0,1,11.73-2.48A7.66,7.66,0,0,1,41.31,385.19Z" style="fill:#263238"></path><path d="M272.07,437.09a5.21,5.21,0,0,1-.65-.2l-1.81-.66-1.3-.48c-.48-.17-1-.31-1.58-.49-1.14-.33-2.42-.78-3.88-1.08l-2.28-.54c-.79-.18-1.64-.28-2.5-.44-1.72-.34-3.59-.5-5.55-.71a67.12,67.12,0,0,0-25.35,2.79c-1.87.63-3.66,1.19-5.27,1.9-.81.34-1.61.63-2.34,1l-2.11,1c-1.37.61-2.51,1.32-3.55,1.89-.52.3-1,.56-1.44.82l-1.17.76-1.62,1a3.08,3.08,0,0,1-.59.33,3.93,3.93,0,0,1,.53-.41l1.57-1.12,1.15-.8c.42-.28.91-.55,1.42-.86,1-.59,2.17-1.34,3.53-2l2.11-1.06c.74-.36,1.54-.66,2.35-1,1.61-.73,3.41-1.31,5.28-2a71.86,71.86,0,0,1,12.63-2.67,71,71,0,0,1,12.91-.14c2,.23,3.85.4,5.58.76.87.17,1.72.29,2.51.48l2.29.57c1.47.33,2.74.81,3.88,1.17.56.18,1.1.34,1.57.52l1.3.53,1.77.75A2.8,2.8,0,0,1,272.07,437.09Z" style="fill:#263238"></path><path d="M485.76,441.18s0-.61,0-1.79,0-2.95,0-5.25c0-4.61,0-11.4-.06-20.12s0-19.37,0-31.71q0-4.62,0-9.57c-.09-3.26.37-6.77-1.12-9.94s-4.45-5.48-7.86-6.68a29.61,29.61,0,0,0-11.07-1.49h0l-175.89.06L94,354.62l-59.27-.09-16.12,0-4.19,0-1.43,0s.49,0,1.43,0l4.19,0,16.12-.05L94,354.25l195.61-.08,175.89.06h0a30,30,0,0,1,11.23,1.53c3.47,1.23,6.65,3.58,8.06,6.89a13.5,13.5,0,0,1,1.11,5.08c0,1.7,0,3.37,0,5q0,5,0,9.57c0,12.34,0,23-.05,31.71s0,15.51-.05,20.12c0,2.3,0,4.06,0,5.25S485.76,441.18,485.76,441.18Z" style="fill:#263238"></path><path d="M397,417.53a3.73,3.73,0,0,1-.61-.34l-1.69-1c-.36-.24-.77-.49-1.21-.77s-.95-.53-1.49-.83c-1.07-.57-2.26-1.3-3.67-1.92l-2.18-1c-.76-.36-1.59-.65-2.42-1-1.66-.72-3.51-1.29-5.44-1.93a70.64,70.64,0,0,0-26.12-2.91c-2,.2-3.95.35-5.73.68-.89.16-1.76.26-2.58.44l-2.35.53c-1.51.29-2.83.74-4,1.06-.59.18-1.14.32-1.64.48l-1.35.48-1.87.65a3.79,3.79,0,0,1-.67.2,2.81,2.81,0,0,1,.63-.29l1.85-.75,1.33-.52c.5-.18,1-.34,1.63-.52,1.18-.36,2.5-.83,4-1.15l2.36-.56c.83-.19,1.7-.31,2.59-.47,1.79-.36,3.73-.52,5.76-.74a68.83,68.83,0,0,1,26.3,2.93c1.94.66,3.79,1.24,5.46,2,.83.35,1.66.66,2.42,1l2.18,1.07c1.41.65,2.59,1.4,3.66,2,.53.31,1,.59,1.47.87l1.19.81,1.64,1.13A3.07,3.07,0,0,1,397,417.53Z" style="fill:#263238"></path><path d="M222.22,436.63a1.91,1.91,0,0,1-.46-.15l-1.27-.54c-.54-.25-1.21-.54-2-.83s-1.69-.69-2.71-1-2.12-.72-3.33-1-2.51-.66-3.89-1a69.06,69.06,0,0,0-9.08-1.3,70,70,0,0,0-9.18,0c-1.41.14-2.74.24-4,.44s-2.39.38-3.44.58-2,.43-2.82.62-1.54.37-2.11.54l-1.33.36a1.43,1.43,0,0,1-.48.09,1.62,1.62,0,0,1,.44-.19l1.31-.45c.57-.2,1.27-.42,2.1-.63s1.76-.5,2.81-.7,2.21-.47,3.46-.64,2.6-.35,4-.49a64.4,64.4,0,0,1,9.26-.08,65.17,65.17,0,0,1,9.15,1.35c1.38.35,2.7.65,3.9,1s2.33.75,3.34,1.12,1.9.75,2.69,1.08,1.45.64,2,.91l1.23.63A1.84,1.84,0,0,1,222.22,436.63Z" style="fill:#263238"></path><path d="M329.19,400a8,8,0,0,1-1.33.17c-.86.07-2.1.21-3.62.4A76.55,76.55,0,0,0,312.52,403a75.08,75.08,0,0,0-11.15,4.37c-1.38.67-2.49,1.24-3.25,1.65a7.47,7.47,0,0,1-1.2.58,6.32,6.32,0,0,1,1.1-.76c.73-.46,1.81-1.09,3.18-1.8a63.3,63.3,0,0,1,23-6.88c1.54-.15,2.78-.23,3.65-.24A5.84,5.84,0,0,1,329.19,400Z" style="fill:#263238"></path><path d="M471.12,478.16c-.14,0-.26-18.07-.26-40.36s.12-40.36.26-40.36.26,18.07.26,40.36S471.26,478.16,471.12,478.16Z" style="fill:#263238"></path><path d="M438.47,450.53c-.12-.08,9.48-15.62,21.44-34.71s21.75-34.52,21.87-34.44-9.47,15.61-21.43,34.71S438.6,450.61,438.47,450.53Z" style="fill:#263238"></path><path d="M386,460c0,.15-79.21.26-176.91.26S32.16,460.13,32.16,460s79.2-.26,176.93-.26S386,459.84,386,460Z" style="fill:#263238"></path></g><g id="freepik--Character--inject-188"><path d="M94.1,254.09c0-.79,6.84-21.83,8.68-23.67s6.4-4.35,6.37-13.29c0-6.34-7.69-13.54-11.11-18.54-2.46-3.6-5.26-17.89-7.89-22.36s-5.21-9-12.48-11.41c-6.16-2.08-6.81-1.53-12.94-.56C60.4,165,57.27,166,62,176.49s10.79,22.62,12.11,36.57-3.69,31.83-3.69,31.83Z" style="fill:#263238"></path><path d="M101.36,192.57s13.09-3.87,20.65,2.21,8.11,7.93,9.41,11.62-1.11,1.66,3.5,8.86,3.32,3.68,3.69,9.58-2.4,10.89-1.66,16.6a33.87,33.87,0,0,1,.18,9l-22.5-2.4-4.79-20.28L96.93,203.27l-1.11-8.67Z" style="fill:#263238"></path><path d="M100.91,221.1s-.28,0-.8,0a5.75,5.75,0,0,1-.94-.08,9.76,9.76,0,0,1-1.24-.23,15.24,15.24,0,0,1-3.08-1.08,16.39,16.39,0,0,1-6.11-5.09,14.66,14.66,0,0,1-1.63-2.83,8.37,8.37,0,0,1-.45-1.17,5.41,5.41,0,0,1-.26-.91c-.11-.5-.16-.79-.12-.79s.36,1.09,1.16,2.72a18.27,18.27,0,0,0,1.68,2.7,17.46,17.46,0,0,0,5.94,4.94,17,17,0,0,0,3,1.15C99.78,221,100.92,221,100.91,221.1Z" style="fill:#455a64"></path><path d="M103,230.05a11.41,11.41,0,0,0,2.79-2.42,13.21,13.21,0,0,0,2.64-9.46,20.76,20.76,0,0,0-1.91-6.65,47.06,47.06,0,0,0-4.1-6.89c-1.61-2.34-3.4-4.74-5-7.41A33,33,0,0,1,95.28,193a42.14,42.14,0,0,1-1.48-4.66,75.47,75.47,0,0,0-2.62-9.16,30.91,30.91,0,0,0-4.46-7.6,20.83,20.83,0,0,0-6-5.2,15.87,15.87,0,0,0-3.32-1.4,26.14,26.14,0,0,0-3.25-.81,22,22,0,0,0-10,.26,24,24,0,0,0-3.48,1.31,12.72,12.72,0,0,1,3.42-1.5,21.57,21.57,0,0,1,10.14-.43,27,27,0,0,1,3.3.78A16,16,0,0,1,80.94,166a21.15,21.15,0,0,1,6.15,5.28A31.05,31.05,0,0,1,91.66,179a75.2,75.2,0,0,1,2.64,9.22,39,39,0,0,0,1.47,4.59A31.37,31.37,0,0,0,97.84,197c1.56,2.65,3.34,5,4.94,7.4a45.77,45.77,0,0,1,4.1,7,20.85,20.85,0,0,1,1.89,6.8,13.31,13.31,0,0,1-2.85,9.62,9.62,9.62,0,0,1-2.09,1.84l-.63.35C103.05,230,103,230.06,103,230.05Z" style="fill:#455a64"></path><path d="M184.77,325.92s-9.42-9.06-25.92-11.19c-14.18-1.83-40.49,6.49-50.21,11.52L78.82,341.67s6.12-22.25,7.46-32.64S99.1,240.1,99.1,240.1l-34.37-8.7S30.91,333.85,27,346.44c-1.82,5.84-3.8,32.1,7.57,37.49,10,4.76,83.74,9.39,83.74,9.39l56.09-31.12Z" style="fill:#455a64"></path><polygon points="112.57 241.54 110.81 327 144.83 330.86 149.1 322.69 142.7 239.84 112.57 241.54" style="fill:#455a64"></polygon><g style="opacity:0.30000000000000004"><path d="M142.46,311.77a24.45,24.45,0,0,0-7.32,1.12c-8.61,2.22-17.84,4.84-23.35,11.81l.34-.2q18.38-4.87,36.78-9.57A8.31,8.31,0,0,0,142.46,311.77Z"></path></g><path d="M164,315.74a1.1,1.1,0,0,1-.28-.05l-.81-.17-1.3-.31c-.51-.09-1.12-.16-1.8-.27a48.74,48.74,0,0,0-11.57.05,111.12,111.12,0,0,0-16.87,3.37c-6.24,1.75-13.15,3.6-20,6.75s-13.23,6.23-19,9.14-11,5.6-15.36,7.85l-10.33,5.36-2.82,1.43-.74.36a.86.86,0,0,1-.26.11l.24-.15.71-.41,2.78-1.52,10.25-5.5c4.34-2.3,9.52-5,15.32-8s12.19-6.11,19-9.19,13.79-5,20-6.74a109.05,109.05,0,0,1,17-3.27,47.09,47.09,0,0,1,11.63.12c.68.12,1.29.21,1.81.32l1.29.35.79.23Z" style="fill:#263238"></path><path d="M79.09,341.21c0,.09-1.57,0-4.09.12a48.85,48.85,0,0,0-19,4.74c-2.27,1.08-3.62,1.89-3.66,1.81a4.31,4.31,0,0,1,.89-.64,28.4,28.4,0,0,1,2.61-1.5,42.79,42.79,0,0,1,9.28-3.5A43.32,43.32,0,0,1,75,341a30.11,30.11,0,0,1,3,.1A4.16,4.16,0,0,1,79.09,341.21Z" style="fill:#263238"></path><path d="M319,169.56a35,35,0,0,1,11.6,30.19c-.67,5.42-2.46,11.55.88,15.86s10.18,4.46,13.34,8.84c3.72,5.16.07,12.4,1.2,18.66a12.58,12.58,0,0,0,12.93,9.95,49.12,49.12,0,0,1-24.8,9.43l-6.4-9.05c2.44,3.18,1.53,8-1.12,11S320,269,316.14,270A62.32,62.32,0,0,1,262,258.65" style="fill:#263238"></path><path d="M214.61,212.83c1.55-4.1,4-7.85,5.13-12.1,2.39-9.11-1.61-19.68,3.24-27.77,3.45-5.75,10.36-8.32,16.85-10s13.45-3,18.44-7.51c3.66-3.29,5.88-7.94,9.53-11.24,5.2-4.7,12.62-6,19.63-6.14,7.2-.11,14.59.93,20.91,4.4s11.39,9.66,12.21,16.81c.41,3.49-.19,7.1.75,10.48,1,3.72,3.78,6.71,5.39,10.21a18.46,18.46,0,0,1-5.63,21.9l-52.23,61.38c-10.54,3.44-35.41-2.45-43-10.47S210.69,223.19,214.61,212.83Z" style="fill:#263238"></path><path d="M320.13,193.72c-1.36-14.55-11.57-32.14-26-30.16l-45,12.85a8.56,8.56,0,0,0-7.39,8.9L249.25,286H300c-.16-8.83-.36-16.14-.35-16.06s18.53-3.66,21.65-28.07C322.86,229.68,321.64,209.88,320.13,193.72Z" style="fill:#ffd6be"></path><path d="M284.41,216.13a3.12,3.12,0,0,1-2.91,3.23,3,3,0,0,1-3.3-2.71,3.11,3.11,0,0,1,2.9-3.23A3,3,0,0,1,284.41,216.13Z" style="fill:#263238"></path><path d="M316,213.89a3.12,3.12,0,0,1-2.91,3.23,3,3,0,0,1-3.3-2.71,3.12,3.12,0,0,1,2.91-3.23A3,3,0,0,1,316,213.89Z" style="fill:#263238"></path><path d="M317.43,204.53c-.36.56-3.17-1.4-6.81-1s-6.08,2.73-6.53,2.25c-.22-.21.11-1.18,1.17-2.28a8.27,8.27,0,0,1,10.64-1C317.13,203.39,317.61,204.29,317.43,204.53Z" style="fill:#263238"></path><path d="M283.69,206.86c-.45.5-3.2-1.7-7.1-1.71s-6.75,2.06-7.18,1.54c-.2-.23.25-1.14,1.5-2.1a9.44,9.44,0,0,1,5.75-1.86,9.15,9.15,0,0,1,5.64,2C283.5,205.71,283.91,206.63,283.69,206.86Z" style="fill:#263238"></path><path d="M296.13,230.28c0-.19,2.06-.61,5.42-1.14.85-.12,1.66-.31,1.79-.9a4.41,4.41,0,0,0-.65-2.52L300,219.28c-3.8-9.18-6.58-16.74-6.21-16.88s3.75,7.16,7.55,16.34l2.63,6.48a5,5,0,0,1,.54,3.35,2.13,2.13,0,0,1-1.37,1.29,5.59,5.59,0,0,1-1.45.25C298.26,230.4,296.15,230.47,296.13,230.28Z" style="fill:#263238"></path><path d="M299.66,269.89a61.89,61.89,0,0,1-32.8-7.68s8.4,16.44,32.65,13.43Z" style="fill:#eb996e"></path><path d="M284.18,190.19c-.31.92-3.67.59-7.59,1.18s-7.06,1.76-7.61,1c-.25-.38.28-1.26,1.54-2.18a12.64,12.64,0,0,1,5.6-2.15,12.77,12.77,0,0,1,6,.52C283.56,189.05,284.31,189.75,284.18,190.19Z" style="fill:#263238"></path><path d="M315.88,188.68c-.65.78-3.31.07-6.49.13s-5.84.69-6.49-.09c-.28-.37.12-1.15,1.27-1.91a10,10,0,0,1,5.24-1.41,9.82,9.82,0,0,1,5.22,1.38C315.78,187.53,316.17,188.3,315.88,188.68Z" style="fill:#263238"></path><path d="M239.13,179.44c2.39-3.34,6.49-4.92,10.39-6.22a222.94,222.94,0,0,1,51.92-10.7c2,3.7-.22,8.51-3.64,11s-7.71,3.31-11.72,4.6-8.17,3.38-10,7.19c-1.92,4.06-.69,9-2.4,13.16-2.95,7.14-13.18,9-16.09,16.15-2.2,5.41.72,11.41,1.25,17.22a20.87,20.87,0,0,1-21.56,22.77l-.72-62.6C236.54,187.65,236.59,183,239.13,179.44Z" style="fill:#263238"></path><path d="M194.77,230.07c3.42-2.79,7.66-5.15,9.17-9.3,2.19-6.05-2.41-13.49,1-18.94,3.14-5,11.65-4.31,14.59-9.39,2.29-4,0-7.69,1-11.22s6.18-6.44,9.8-5.84l26.52,42.5c2,13.94,4.31,21.42,1,29.37-1.83,4.35-4.15,8.58-5,13.23s.1,10,3.8,12.95c-17.06.55-32.57-9.08-46.89-18.36l-15.15-9.82a11.42,11.42,0,0,1-4.12-3.77C188.37,237.6,191.35,232.87,194.77,230.07Z" style="fill:#263238"></path><path d="M209.51,250.88a7.74,7.74,0,0,0,1.8.44,15.85,15.85,0,0,0,5.31-.13,16.5,16.5,0,0,0,7.57-3.64,16.11,16.11,0,0,0,5.32-9.71,16.71,16.71,0,0,0-.26-6.54,26.79,26.79,0,0,0-2.86-6.46,25,25,0,0,1-3-6.7c-.51-2.39-.39-5.2,1.25-7.17s4.53-2.37,7.25-3.32a7.69,7.69,0,0,0,3.74-2.52,7.6,7.6,0,0,0,1.38-4.4c.11-3.11-1.09-6-1.52-8.94a9.61,9.61,0,0,1,.17-4.34,6.06,6.06,0,0,1,2.61-3.33c2.54-1.64,5.68-1.78,8.7-1.9a18.58,18.58,0,0,0,8.88-2.17,16.65,16.65,0,0,0,6.3-6.22,27.47,27.47,0,0,0,2.58-8.05,39,39,0,0,1,2-7.56,17.15,17.15,0,0,1,4.28-5.84,19.09,19.09,0,0,1,22.42-2.1,23.42,23.42,0,0,1,6.32,5.29,31.6,31.6,0,0,1,3.78,6,2.69,2.69,0,0,0-.15-.44,10.16,10.16,0,0,0-.53-1.28,22.4,22.4,0,0,0-2.8-4.5,23.21,23.21,0,0,0-6.34-5.53,20,20,0,0,0-10.72-2.9,20.33,20.33,0,0,0-12.52,4.86,17.84,17.84,0,0,0-4.54,6.12,38.74,38.74,0,0,0-2.11,7.72,26.53,26.53,0,0,1-2.52,7.76,15.65,15.65,0,0,1-5.94,5.84,17.47,17.47,0,0,1-8.45,2c-3,.13-6.36.23-9.2,2.05a7.11,7.11,0,0,0-3,3.87,10.68,10.68,0,0,0-.21,4.79c.48,3.09,1.63,5.9,1.53,8.77a6.78,6.78,0,0,1-1.17,3.85,6.93,6.93,0,0,1-3.31,2.2c-1.29.48-2.67.78-4,1.28a8,8,0,0,0-3.61,2.35c-1.89,2.32-1.95,5.4-1.4,7.93a25.49,25.49,0,0,0,3.09,6.92,26.1,26.1,0,0,1,2.84,6.25,16,16,0,0,1,.3,6.25,15.66,15.66,0,0,1-5,9.4,16.32,16.32,0,0,1-7.28,3.67A18.19,18.19,0,0,1,209.51,250.88Z" style="fill:#455a64"></path><path d="M188.2,220.55a3.63,3.63,0,0,0-.63,1.37,6.06,6.06,0,0,0,.54,4.24,6.48,6.48,0,0,0,2.06,2.39,6.76,6.76,0,0,0,3.59,1.13,8.47,8.47,0,0,0,7.66-4.38,11.24,11.24,0,0,0,1.45-5.12,15.8,15.8,0,0,0-.93-5.67c-1.18-3.74-3.46-7.44-3.32-11.74a7.87,7.87,0,0,1,2.24-5.75c1.59-1.46,3.95-1.73,6.27-1.64s4.86.44,7.39-.43a6.45,6.45,0,0,0,3.15-2.4,9.24,9.24,0,0,0,1.41-3.7c.44-2.63-.07-5.17-.26-7.58a16.51,16.51,0,0,1,.71-7,17.75,17.75,0,0,1,8.39-10c3.79-2.05,8.06-2.09,11.91-2.14s7.62-.1,10.84-1.2a22.9,22.9,0,0,0,12.25-9.6,16.21,16.21,0,0,0,2.27-5.3,31.12,31.12,0,0,1-2.59,5.09,22.52,22.52,0,0,1-4.46,4.95,22.22,22.22,0,0,1-7.68,4.19c-3.12,1-6.75,1.06-10.63,1.05s-8.28,0-12.33,2.16A18.56,18.56,0,0,0,218.61,174a17.65,17.65,0,0,0-.78,7.38c.21,2.47.68,4.94.27,7.33s-1.69,4.61-3.91,5.34-4.65.42-7,.38-5.05.17-6.92,1.91a8.73,8.73,0,0,0-2.52,6.43,16.68,16.68,0,0,0,1.26,6.4c.74,2,1.57,3.8,2.19,5.62a15.21,15.21,0,0,1,1,5.38,10.67,10.67,0,0,1-1.3,4.81,7.91,7.91,0,0,1-7,4.17,6.31,6.31,0,0,1-3.34-1,6.19,6.19,0,0,1-2-2.18,6,6,0,0,1-.68-4C188,221,188.25,220.58,188.2,220.55Z" style="fill:#263238"></path><path d="M296.58,238.12A54.64,54.64,0,0,0,289.9,235c-2.15-.59-3.54.5-4.67,2.41a6,6,0,0,0,.53,6.33c.77,1.09,3.27,1.77,4.58,1.56a4.12,4.12,0,0,0,2.33-1.14,31.12,31.12,0,0,0,4.27-5.88" style="fill:#eb996e"></path><path d="M289.77,245.08c0,.09-.3.31-1,.38a4.31,4.31,0,0,1-2.76-.73,5.15,5.15,0,0,1-2.33-3.64,6.51,6.51,0,0,1,1.55-5,6.31,6.31,0,0,1,2.26-1.7,3.46,3.46,0,0,1,1.47-.26,3.82,3.82,0,0,1,1.33.31c.77.33,1.34.68,1.93,1l1.59.89c1.94,1.11,3.09,1.9,3,2.09s-1.42-.24-3.49-1.1l-1.68-.72c-.59-.25-1.26-.59-1.86-.8a2.1,2.1,0,0,0-1.7,0,5,5,0,0,0-1.65,1.29,5.37,5.37,0,0,0-1.32,3.86,4.21,4.21,0,0,0,1.55,2.9,4.65,4.65,0,0,0,2.14,1C289.39,245,289.74,245,289.77,245.08Z" style="fill:#263238"></path><path d="M421.83,378.54a27.1,27.1,0,0,0,6.89-5c2.31-2.87,11.51-16.07,11.51-16.07l-14.78-11.54s-6.69,8.57-7.95,15.51l-1.06,1.94L410.21,365Z" style="fill:#ffd6be"></path><path d="M447,291.74l-29.68,58.88a2.29,2.29,0,0,0,1,3.07l5.73,3s2.72-.67,3.53-1.68,24.92-53,27.36-58.22a1.56,1.56,0,0,0,.1-1,3.89,3.89,0,0,0-1.25-1.9,17.85,17.85,0,0,0-4.38-3A1.9,1.9,0,0,0,447,291.74Z" style="fill:#263238"></path><path d="M449.64,293.48a2.47,2.47,0,0,1-.27.63l-.87,1.77c-.78,1.58-1.86,3.78-3.18,6.48-2.72,5.52-6.42,13.06-10.51,21.38s-7.88,15.9-10.65,21.33c-1.38,2.72-2.53,4.91-3.33,6.41-.4.75-.74,1.33-1,1.72a2.61,2.61,0,0,1-.37.58,3.65,3.65,0,0,1,.28-.63l.87-1.76,3.18-6.48,10.51-21.4c4.12-8.34,7.87-15.88,10.65-21.32,1.38-2.72,2.52-4.9,3.33-6.41.4-.75.74-1.32,1-1.71A5.14,5.14,0,0,1,449.64,293.48Z" style="fill:#455a64"></path><path d="M454.6,297.35c-.12.08-1-1-2.24-2s-2.53-1.6-2.48-1.74a5.09,5.09,0,0,1,2.8,1.33A5,5,0,0,1,454.6,297.35Z" style="fill:#455a64"></path><path d="M450.92,300.23a2.48,2.48,0,0,0-1.23,1.65c-.08.25-.08.62.18.7a.55.55,0,0,0,.41-.09,3.87,3.87,0,0,0,1.17-1,1.11,1.11,0,0,0,.29-.92.61.61,0,0,0-.82-.34" style="fill:#fff"></path><path d="M449.74,306.82s-1.38,18-1.58,21.75,0,18.6,0,18.6-10.29,13.64-13.45,17-6.33-7.92-6.33-8.51v-3.36l-2.57-7.42s-8.11-6-5.93-10c0,0,.79-.76,4.74.91a15.49,15.49,0,0,1,5.94,4.24l4.94,7.51L433.72,337s-12.06-10.23-8.11-15.37l13.25,10.68,3,7.32v-9.3l-3-3.75s-8.5-7.13-6.13-11.08l8.9,4.35S443.81,303.85,449.74,306.82Z" style="fill:#ffd6be"></path><path d="M443.27,347.44a24.88,24.88,0,0,0-.23-3.61,26.36,26.36,0,0,0-1.24-3.4,5.44,5.44,0,0,1,1.74,3.29A5.38,5.38,0,0,1,443.27,347.44Z" style="fill:#eb996e"></path><path d="M447.81,326.89a20.65,20.65,0,0,1-3.26-3.24,20.17,20.17,0,0,1-2.88-3.59,20.5,20.5,0,0,1,3.27,3.24A20.79,20.79,0,0,1,447.81,326.89Z" style="fill:#eb996e"></path><path d="M411.58,364.8l-32.81,4.73-3.54,23.8,8.42,6.72s30.57-17.36,35.07-19.72l4.47-2.57-1.69-10.21-10.57-2.75" style="fill:#ffd6be"></path><path d="M423.55,370.89a1.62,1.62,0,0,1-.7-.44,4,4,0,0,1-1.13-1.94,5.5,5.5,0,0,1,.19-3.32,11.71,11.71,0,0,1,2.11-3.46c.91-1.1,1.84-2.08,2.55-3.05a9,9,0,0,0,1.45-2.81,7.16,7.16,0,0,0,.17-2.91,1.73,1.73,0,0,1,.27.77,5.22,5.22,0,0,1-.08,2.23,8.73,8.73,0,0,1-1.42,3c-.72,1-1.64,2-2.54,3.1a12.18,12.18,0,0,0-2.06,3.29,5.35,5.35,0,0,0-.28,3.08,4.11,4.11,0,0,0,.92,1.88C423.33,370.69,423.58,370.85,423.55,370.89Z" style="fill:#eb996e"></path><path d="M187.74,320.72l-20.41,13s-60.2,7.19-56.52,59.05l80.61,17.82,32.12-4.94L232.9,388l-24.08-67.25Z" style="fill:#FFFFFF"></path><path d="M337.29,295.52a23.86,23.86,0,0,0-23.38-14.25l-22,1.42-49-.3-15.49-3.33c-20.85-4.49-41.25,10-43.42,31.19-.05.44-.09.89-.13,1.34-2.62,32.55-.7,74.18-.64,82.07.14,17.32,3.51,20.42,9.27,27.41,9.85,11.92,27.42,12.79,27.42,12.79l8.2-26h49.44s23.95-1.63,37.21-22.52c2.67-4.21,4.1-8.21,6.72-14.39,10.72-25.27,21.3-62.8,21.3-62.8Z" style="fill:#FFFFFF"></path><path d="M321.78,282.44s12.06-2.4,21.32,27.42c5.09,16.39,13.66,59.4,13.66,59.4l26.89-3.58v34.37s-44.08,10.69-51.71,5.31-16-63.83-16-63.83l3.58-50.94Z" style="fill:#FFFFFF"></path><path d="M167.33,333.77a2.14,2.14,0,0,1-.47.36l-1.39.94-1,.66-1.17.85c-.84.61-1.8,1.28-2.81,2.11L158.86,340l-1.68,1.45c-1.18,1-2.34,2.13-3.6,3.3a92.5,92.5,0,0,0-7.45,8.35,84.25,84.25,0,0,0-6.22,9.31c-.79,1.52-1.63,2.94-2.24,4.34l-.93,2-.76,1.9c-.51,1.2-.86,2.32-1.19,3.3-.16.49-.31.95-.46,1.37s-.21.82-.31,1.17q-.27,1-.45,1.62a1.93,1.93,0,0,1-.19.56,2.83,2.83,0,0,1,.09-.58c.09-.43.21-1,.35-1.65.09-.36.18-.76.28-1.18s.26-.9.41-1.39c.3-1,.64-2.14,1.13-3.35.23-.62.47-1.26.73-1.93l.91-2c.6-1.42,1.42-2.85,2.21-4.4a81.42,81.42,0,0,1,6.23-9.39,86.39,86.39,0,0,1,7.53-8.37c1.28-1.17,2.45-2.32,3.65-3.29l1.71-1.43,1.63-1.25c1-.81,2-1.47,2.88-2.06l1.19-.81,1.05-.63,1.45-.86A2.94,2.94,0,0,1,167.33,333.77Z" style="fill:#263238"></path><path d="M314.45,280.88c-6,20.71-8.05,39.88-19.83,57.93-2.45,3.77-5.22,7.46-8.95,10s-8.59,3.72-12.81,2.16c-3.46-1.28-12.33-6.62-14.63-9.51-14.56-18.25-23.68-37.8-29.7-62.44,0,0,22.59,1.51,48.31,1.66C290.51,280.72,314.45,280.88,314.45,280.88Z" style="fill:#ffd6be"></path><path d="M284.86,310.72l17.77-45.36-.1-17,0-7c-3.06-.9-4.93,4.77-4.93,4.77l0-4.58c-4.39-1.31-6.25,6.33-6.25,6.33l-4,8.23-6.2,6.92.26-.42-.7.9-.94,1.05a15.81,15.81,0,0,0,2.43-8.61c0-5.15-3.28-4.74-3.28-4.74L266.51,271s-3.65,10.07-3.05,15.79-.06,21.08-.06,21.08" style="fill:#ffd6be"></path><path d="M263.4,307.87s0-.23,0-.67,0-1.12.05-2c0-1.74.07-4.26.13-7.48a115.77,115.77,0,0,0-.32-11.73,29.25,29.25,0,0,1,.84-7.26,70,70,0,0,1,2.23-7.84v0l12.34-19.81.07-.11h.11a2.83,2.83,0,0,1,1.93.59,3.56,3.56,0,0,1,1.16,1.63,9.29,9.29,0,0,1,.42,3.91,16.1,16.1,0,0,1-2.43,7.6l-.4-.31.94-1.05h0l.7-.9.42.29-.27.42-.41-.3,6.21-6.92,0,.06c1.05-2.2,2.18-4.54,3.31-6.9l.64-1.33,0,0a13.88,13.88,0,0,1,2.1-4.61,5.17,5.17,0,0,1,1.92-1.7,3.63,3.63,0,0,1,2.57-.21l.18,0v.19c0,1.54,0,3.07,0,4.58l-.5-.07a12.11,12.11,0,0,1,1.8-3.41,4.47,4.47,0,0,1,1.47-1.29,2.6,2.6,0,0,1,2-.23l.18,0v.19c0,8.57.09,16.63.13,24v.09c-5.36,13.56-9.83,24.88-13,32.84-1.58,3.94-2.82,7-3.67,9.19l-1,2.42-.26.62a.71.71,0,0,1-.1.2l.07-.22c.06-.15.13-.36.23-.62.21-.58.52-1.39.92-2.45.83-2.15,2-5.28,3.55-9.24l12.79-32.91v.09c-.06-7.38-.12-15.44-.18-24l.18.24a2.83,2.83,0,0,0-2.9,1.36,11.6,11.6,0,0,0-1.71,3.25l-.5,1.38v-1.46c0-1.52,0-3,0-4.58l.19.24a3.15,3.15,0,0,0-2.2.18,4.55,4.55,0,0,0-1.72,1.55,13.45,13.45,0,0,0-2,4.42V248c-.21.44-.42.88-.64,1.32-1.13,2.37-2.26,4.71-3.31,6.9l0,0,0,0-6.2,6.91-.41-.31.26-.42.42.3-.7.9h0l-.94,1.05-.39-.32a15.64,15.64,0,0,0,2.34-7.34,8.77,8.77,0,0,0-.38-3.7,3.13,3.13,0,0,0-1-1.43,2.42,2.42,0,0,0-1.58-.5l.18-.11-12.4,19.78,0,0a68.93,68.93,0,0,0-2.26,7.78,29.72,29.72,0,0,0-.87,7.17,116,116,0,0,1,.23,11.75c-.07,3.23-.17,5.76-.25,7.48-.05.84-.08,1.49-.1,1.95S263.4,307.87,263.4,307.87Z" style="fill:#eb996e"></path><g style="opacity:0.30000000000000004"><path d="M253.59,407.81a34.18,34.18,0,0,0,10.62-16c2.12-6.37,3.05-13.07,4-19.72l3.12-22.63c-8.83,15.07-15.47,31.16-18.15,48.15C252.58,401.25,254,404.11,253.59,407.81Z"></path></g><path d="M263.84,305.69l-40.7,77.49,6.18,44.48s16.49-4.72,32.44-49c6.41-17.78,23.1-68,23.1-68Z" style="fill:#ffd6be"></path><path d="M323.76,315.11s0,.08.05.24.06.43.1.72c.08.68.18,1.61.32,2.79.26,2.42.6,5.93.89,10.27s.5,9.54.39,15.3a108,108,0,0,1-1.91,18.64,64.77,64.77,0,0,1-6.13,17.7A48.47,48.47,0,0,1,308.34,393a49.53,49.53,0,0,1-8.12,6.36c-1,.65-1.88,1.08-2.44,1.4l-.64.35-.22.1s.06-.06.2-.15l.61-.39c.54-.35,1.37-.8,2.38-1.48a52.49,52.49,0,0,0,8-6.45,49.36,49.36,0,0,0,9-12.22,65.8,65.8,0,0,0,6-17.58A111,111,0,0,0,325,344.42c.14-5.75,0-10.92-.28-15.26s-.52-7.86-.72-10.28c-.1-1.18-.17-2.12-.22-2.8l-.05-.72A.78.78,0,0,1,323.76,315.11Z" style="fill:#263238"></path><path d="M251.63,397.63c-9.09-7.45-21-29.71-21-29.71-6.68,0-7.91,14.34-10.24,19.9L207.11,431c5.56,1.81,18.07,5.93,25.79,2.62,5.35-2.3,12.17-7.59,14.41-13C249.63,415.1,258.87,403.56,251.63,397.63Z" style="fill:#FFFFFF"></path><path d="M224.41,329.53a2,2,0,0,1,.09.47c0,.37.1.82.17,1.36.14,1.17.3,2.88.45,5a108.63,108.63,0,0,1-.11,16.57c-.54,6.45-1.09,12.27-1.28,16.5-.1,2.05-.18,3.74-.24,5,0,.54-.06,1-.08,1.36a2.12,2.12,0,0,1-.06.48,1.44,1.44,0,0,1,0-.48c0-.37,0-.82,0-1.37,0-1.18,0-2.9.08-5,.1-4.24.59-10.09,1.14-16.52a127.71,127.71,0,0,0,.26-16.51c-.11-2.11-.21-3.83-.3-5,0-.54-.05-1-.07-1.36A1.39,1.39,0,0,1,224.41,329.53Z" style="fill:#263238"></path><path d="M223.17,383.93c.15.11-2.43,2.46-3.75,6.4a28.53,28.53,0,0,0-1.2,5.12,11.77,11.77,0,0,1-.37,2.18,7.64,7.64,0,0,1,0-2.22,22.21,22.21,0,0,1,1.08-5.26,15.16,15.16,0,0,1,2.63-4.69A6.58,6.58,0,0,1,223.17,383.93Z" style="fill:#263238"></path><path d="M230.35,368.13a18.29,18.29,0,0,0-2.42,1.39,11.63,11.63,0,0,0-3.79,5.41,22.42,22.42,0,0,0-1,6.66,20.37,20.37,0,0,1-.12,2.83,11.51,11.51,0,0,1-.25-2.83,19.78,19.78,0,0,1,.93-6.83,11.11,11.11,0,0,1,4.06-5.54,7.57,7.57,0,0,1,1.89-.94A2,2,0,0,1,230.35,368.13Z" style="fill:#263238"></path><path d="M248.91,416a8,8,0,0,1-1.53-.45,13.12,13.12,0,0,1-1.75-.67,21.13,21.13,0,0,1-2.25-1.07l-1.27-.68c-.45-.25-.87-.55-1.33-.84-.94-.56-1.84-1.29-2.82-2a38.73,38.73,0,0,1-5.58-5.64,38.21,38.21,0,0,1-4.17-6.74,31.5,31.5,0,0,1-1.31-3.21c-.18-.51-.37-1-.51-1.49s-.25-.95-.37-1.4a24.24,24.24,0,0,1-.51-2.43,12.64,12.64,0,0,1-.24-1.86,10.56,10.56,0,0,1-.09-1.6c.13,0,.23,2.28,1.2,5.8.12.44.26.9.4,1.37s.34,1,.52,1.46a33.69,33.69,0,0,0,1.34,3.15,40.23,40.23,0,0,0,4.15,6.63,39.8,39.8,0,0,0,5.48,5.58c.95.74,1.84,1.47,2.75,2,.44.29.86.6,1.29.85l1.24.71C246.75,415.2,249,415.84,248.91,416Z" style="fill:#263238"></path><path d="M183,319.73a.6.6,0,0,1,0,.23c0,.19,0,.41,0,.68,0,.65,0,1.52,0,2.62,0,2.27-.14,5.56-.31,9.62s-.47,8.88-.83,14.24-.77,11.25-1,17.43-.22,12.09,0,17.45c.08,1.33.16,2.64.24,3.91s.25,2.49.36,3.67c.2,2.38.57,4.57.83,6.58.64,4,1.23,7.24,1.74,9.45.22,1.08.4,1.93.53,2.56,0,.27.09.49.12.67a.67.67,0,0,1,0,.23,1,1,0,0,1-.08-.22c-.05-.18-.1-.39-.17-.66-.16-.62-.37-1.47-.63-2.53-.57-2.21-1.22-5.43-1.9-9.44-.28-2-.68-4.21-.9-6.59-.12-1.19-.27-2.42-.38-3.69s-.18-2.58-.27-3.92c-.3-5.37-.33-11.29-.09-17.49s.68-12.08,1-17.44.7-10.18,1-14.23.38-7.34.46-9.61c0-1.1.1-2,.13-2.61,0-.27,0-.49,0-.68A1.45,1.45,0,0,1,183,319.73Z" style="fill:#263238"></path><path d="M231,368.32c11.4-20.42,21.28-40.51,32.52-61.88" style="fill:#ffd6be"></path><path d="M263.53,306.44a4,4,0,0,1-.28.66l-.91,1.83L259,315.61l-11.27,22c-4.43,8.58-8.54,16.3-11.59,21.84-1.53,2.77-2.78,5-3.67,6.53l-1,1.76a3.68,3.68,0,0,1-.39.59,2.67,2.67,0,0,1,.3-.64l.94-1.81,3.52-6.61c3-5.58,7-13.32,11.46-21.89s8.44-16.34,11.4-21.93l3.53-6.61,1-1.78A3.45,3.45,0,0,1,263.53,306.44Z" style="fill:#eb996e"></path><line x1="284.86" y1="310.72" x2="270.67" y2="352.96" style="fill:#ffd6be"></line><path d="M270.67,353c-.14,0,2.93-9.54,6.85-21.2s7.21-21.08,7.34-21-2.93,9.54-6.85,21.2S270.81,353,270.67,353Z" style="fill:#eb996e"></path><path d="M280.15,263.93a15.83,15.83,0,0,1-1.28,2.27,59,59,0,0,0-2.9,5.56,62.48,62.48,0,0,0-2.28,5.83,17.38,17.38,0,0,1-.86,2.47,10.61,10.61,0,0,1,.51-2.57A39.9,39.9,0,0,1,278.55,266,10.9,10.9,0,0,1,280.15,263.93Z" style="fill:#eb996e"></path><path d="M285.66,272.82a4.65,4.65,0,0,1,.42-1.16,16.77,16.77,0,0,1,1.77-2.87c.86-1.14,2-2.39,3.25-3.78a27.94,27.94,0,0,0,3.66-4.76,14.45,14.45,0,0,0,1.72-5.68c.19-1.85.21-3.53.29-4.94a28,28,0,0,1,.33-3.35,4.81,4.81,0,0,1,.3-1.2,8.45,8.45,0,0,1-.1,1.23c-.08.78-.14,1.92-.16,3.33s0,3.1-.19,5a14.23,14.23,0,0,1-1.74,5.88,26.07,26.07,0,0,1-3.76,4.84c-1.27,1.37-2.43,2.58-3.31,3.68A26.85,26.85,0,0,0,285.66,272.82Z" style="fill:#eb996e"></path><path d="M302.63,258a6.89,6.89,0,0,1-.35,2.18,17.37,17.37,0,0,1-2,4.91,17.55,17.55,0,0,1-3.53,4,7.16,7.16,0,0,1-1.79,1.26,12.38,12.38,0,0,1,1.55-1.54,19.08,19.08,0,0,0,5.46-8.73A14.4,14.4,0,0,1,302.63,258Z" style="fill:#eb996e"></path><path d="M356,369.7c.06.08-1.13.88-2.75,2.49a26,26,0,0,0-2.59,3.05,27.24,27.24,0,0,0-2.46,4.22,27.67,27.67,0,0,0-1.6,4.62,24.75,24.75,0,0,0-.62,4c-.17,2.27,0,3.69-.1,3.7a3.29,3.29,0,0,1-.18-1,11.21,11.21,0,0,1-.09-1.17c0-.46,0-1,0-1.57a22.49,22.49,0,0,1,.52-4,23.58,23.58,0,0,1,4.14-9,22.19,22.19,0,0,1,2.73-3c.41-.41.83-.72,1.18-1a10.32,10.32,0,0,1,.95-.69A3.91,3.91,0,0,1,356,369.7Z" style="fill:#263238"></path><g style="opacity:0.30000000000000004"><path d="M223.35,376a7.9,7.9,0,0,0-1.4,6.34c-4.48,1.26-7.42,5.5-9.56,9.64-2.38,4.57-4.31,9.88-2.74,14.78.63,2,2.42,4.05,4.44,3.51,1.87-.5,2.5-2.8,2.68-4.72.42-4.3.26-8.72,1.56-12.84a19.42,19.42,0,0,1,4.72-8.49l.3-8.22"></path></g><g style="opacity:0.30000000000000004"><path d="M324.94,326.11a178.33,178.33,0,0,1,.09,23.8c-.48,7.8-1.65,13.42-3.93,21.69l.36,1.55c6-5.71,8.47-14.41,8.35-22.71S327.31,334.07,324.94,326.11Z"></path></g><g style="opacity:0.30000000000000004"><path d="M139.88,352.47c-7.56,7.43-13.43,17.11-14.19,27.68-.12,1.7.23,3.89,1.89,4.29,1.46.36,2.74-1,3.53-2.26,2.39-3.82,3.7-8.18,5.39-12.35a74,74,0,0,1,30.83-36.06A99.64,99.64,0,0,0,139.88,352.47Z"></path></g></g><g id="freepik--speech-bubble-2--inject-188"><path d="M464.32,152.77h-86a10.38,10.38,0,0,0-10.38,10.38v94.66a10.38,10.38,0,0,0,10.38,10.37h65.15l0,17.17,12.65-17.17h8.22a10.38,10.38,0,0,0,10.37-10.37V163.15A10.38,10.38,0,0,0,464.32,152.77Z" style="fill:#fff"></path><path d="M464.31,152.77l.65,0a8.62,8.62,0,0,1,1.87.26,10.43,10.43,0,0,1,7.9,9.09c.11,2,0,4.13.07,6.46,0,4.66,0,10,0,16,0,11.93,0,26.35.05,42.8,0,8.23,0,17,0,26.14V257a12.46,12.46,0,0,1-.35,3.53,10.55,10.55,0,0,1-4,5.89,10.86,10.86,0,0,1-7,2H456.1l.19-.09c-4,5.42-8.26,11.23-12.64,17.18l-.44.61V268.18l.26.25H379.62a12.16,12.16,0,0,1-5.73-1,10.56,10.56,0,0,1-6.18-9.22c0-1.91,0-3.77,0-5.65V241.45c0-14.72,0-28.93,0-42.46q0-10.14,0-19.77v-9.47c0-1.56,0-3.1,0-4.63a17.13,17.13,0,0,1,.33-4.57,10.55,10.55,0,0,1,9.71-8c1.45-.06,2.84,0,4.24,0l16.07,0,48.46.08,13.18.05,3.43,0,1.16,0-1.16,0-3.43,0-13.18,0-48.46.08L382,153c-1.39,0-2.81,0-4.22,0a10.12,10.12,0,0,0-9.31,7.64,17.41,17.41,0,0,0-.32,4.47c0,1.53,0,3.07,0,4.63v9.47q0,9.61,0,19.77c0,13.53,0,27.74,0,42.46v11.14c0,1.87,0,3.76,0,5.63a10.07,10.07,0,0,0,5.89,8.77,11.66,11.66,0,0,0,5.51.93h64.1v.26c0,5.93,0,11.77,0,17.17l-.44-.14L455.91,268l.07-.1h7.55a10.41,10.41,0,0,0,6.73-1.93,10,10,0,0,0,3.86-5.63,11.87,11.87,0,0,0,.34-3.42V253.5c0-9.18,0-17.91,0-26.14,0-16.45,0-30.87.05-42.8,0-6,0-11.3,0-16,0-2.32.07-4.49,0-6.44a10.35,10.35,0,0,0-7.73-9,9.74,9.74,0,0,0-1.86-.3Z" style="fill:#263238"></path><polygon points="420.26 186.07 430.59 164.04 430.33 188.37 449.19 173 438.4 194.81 462.06 189.14 442.88 204.11 466.66 209.27 442.88 214.43 462.06 229.4 438.4 223.73 449.19 245.54 430.33 230.17 430.59 254.5 420.26 232.47 409.94 254.5 410.2 230.17 391.34 245.54 402.13 223.73 378.47 229.4 397.65 214.43 373.87 209.27 397.65 204.11 378.47 189.14 402.13 194.81 391.34 173 410.2 188.37 409.94 164.04 420.26 186.07" style="fill:#f5f5f5"></polygon><rect x="399.93" y="197.74" width="43.49" height="29.98" transform="translate(-0.36 0.72) rotate(-0.1)" style="fill:#FFFFFF"></rect><path d="M412.61,182.67c-1-1-2.18-2.17-3.58-2s-2.21,1.45-2.77,2.67a16.91,16.91,0,0,0-1.51,6.67,3.6,3.6,0,0,0,1,3c.9.71,2.19.5,3.31.27,3.05-.65,7.51-.7,10.55-1.35A67.15,67.15,0,0,0,412.61,182.67Z" style="fill:#FFFFFF"></path><path d="M412.61,182.67a4.9,4.9,0,0,1,.61.59c.38.39.92,1,1.58,1.77a61.35,61.35,0,0,1,5,6.8l.17.28-.32.07c-3,.66-6.64.66-10.34,1.33a8,8,0,0,1-2.31.25,2.47,2.47,0,0,1-2-1.2,4.45,4.45,0,0,1-.51-2.16,17.26,17.26,0,0,1,.13-2.06,16.81,16.81,0,0,1,.88-3.68,10,10,0,0,1,1.54-2.94,2.89,2.89,0,0,1,2.47-1.18,3.47,3.47,0,0,1,1.89.86,8.14,8.14,0,0,1,.93.91,1.54,1.54,0,0,1,.27.36s-.44-.44-1.32-1.11a3.36,3.36,0,0,0-1.79-.73,2.56,2.56,0,0,0-2.16,1.12,9.74,9.74,0,0,0-1.42,2.85,17,17,0,0,0-.82,3.6,7.07,7.07,0,0,0,.34,3.9,2,2,0,0,0,1.62.94,7.82,7.82,0,0,0,2.16-.24c3.78-.68,7.37-.66,10.34-1.27l-.14.35a73.08,73.08,0,0,0-4.83-6.88l-1.48-1.85A3.88,3.88,0,0,1,412.61,182.67Z" style="fill:#263238"></path><path d="M421.4,192a32.72,32.72,0,0,1,5-6.89c1.47-1.62,3.19-3.26,5.36-3.55a3.38,3.38,0,0,1,2.78.75,5.05,5.05,0,0,1,1.11,3.51q.25,4.4.49,8.77" style="fill:#FFFFFF"></path><path d="M436.13,194.61a5.89,5.89,0,0,1-.16-1.19c-.08-.89-.16-2-.27-3.28s-.21-3-.33-4.85a4.63,4.63,0,0,0-.81-2.56,3,3,0,0,0-2.57-.92c-2,.2-3.62,1.61-4.86,2.88s-2.33,2.57-3.18,3.66a31.09,31.09,0,0,0-1.88,2.67,7.59,7.59,0,0,1-.67,1,4.61,4.61,0,0,1,.49-1.11,22.18,22.18,0,0,1,1.77-2.78,43.06,43.06,0,0,1,3.12-3.77,13.37,13.37,0,0,1,2.19-1.93,6.33,6.33,0,0,1,3-1.14,3.46,3.46,0,0,1,3,1.12,5.09,5.09,0,0,1,.9,2.84c.08,1.8.15,3.45.22,4.87s.07,2.4.1,3.28A5,5,0,0,1,436.13,194.61Z" style="fill:#263238"></path><path d="M417.69,191.85a2.31,2.31,0,0,1,1-2.56,2.69,2.69,0,0,1,2.8,0,3.21,3.21,0,0,1,1.46,2.44" style="fill:#FFFFFF"></path><path d="M422.93,191.75c-.08,0-.14-.49-.52-1.15a2.78,2.78,0,0,0-2.34-1.43,2.29,2.29,0,0,0-1.44.45,2.32,2.32,0,0,0-.75,1,5.09,5.09,0,0,0-.19,1.22c-.05,0-.37-.47-.16-1.33a2.56,2.56,0,0,1,.79-1.28,2.69,2.69,0,0,1,1.76-.59,2.88,2.88,0,0,1,1.74.61,3.23,3.23,0,0,1,.92,1.17C423.07,191.22,423,191.75,422.93,191.75Z" style="fill:#263238"></path><rect x="433.74" y="200.43" width="5.48" height="27.25" style="fill:#fafafa"></rect><g style="opacity:0.30000000000000004"><rect x="429.12" y="197.72" width="14.31" height="29.98" transform="translate(-0.35 0.72) rotate(-0.09)"></rect></g><rect x="396.44" y="191.82" width="50.47" height="8.61" style="fill:#FFFFFF"></rect><rect x="434.45" y="191.82" width="5.61" height="8.61" style="fill:#fafafa"></rect><g style="opacity:0.4"><rect x="424.88" y="191.82" width="22.04" height="8.61"></rect></g><path d="M429.17,227.68c-.14,0-.26-6-.26-13.47s.12-13.46.26-13.46.26,6,.26,13.46S429.31,227.68,429.17,227.68Z" style="fill:#263238"></path><rect x="409.81" y="200.43" width="6.65" height="27.25" style="fill:#fafafa"></rect><rect x="407.21" y="191.82" width="6.7" height="8.61" style="fill:#fafafa"></rect><path d="M446.91,200.43a4.09,4.09,0,0,1,0-.57c0-.41,0-1,0-1.66,0-1.5,0-3.64-.06-6.38l.13.14c-10.14.07-29,.12-50.46.12h0c-.05.06.5-.49.26-.26h0v8.58l-.26-.26,36,.09,10.65.08,2.87,0,.74,0a.79.79,0,0,1,.25,0l-.25,0-.74,0-2.87,0-10.65.08-36,.09h-.25v-.26c0-1.38,0-2.8,0-4.24v-4.34h0l.26-.26h0c21.5,0,40.32.05,50.46.13h.14v.13c0,2.74-.05,4.88-.07,6.38,0,.7,0,1.25,0,1.66A2.25,2.25,0,0,1,446.91,200.43Z" style="fill:#263238"></path><path d="M430,187.54c.05.15-1.7.73-3.69,1.78s-3.46,2.14-3.56,2a13.11,13.11,0,0,1,7.25-3.8Z" style="fill:#263238"></path><path d="M417.81,190.82c-.05.15-2.1-.37-4.68-.57s-4.69,0-4.7-.18a11.66,11.66,0,0,1,4.74-.34A12,12,0,0,1,417.81,190.82Z" style="fill:#263238"></path><path d="M417.49,190.11a11.41,11.41,0,0,1-2.39-1.3,11.29,11.29,0,0,1-2.32-1.41,8.35,8.35,0,0,1,4.71,2.71Z" style="fill:#263238"></path><path d="M443.45,200.43a1.81,1.81,0,0,1,0,.51c0,.37,0,.86,0,1.47,0,1.34,0,3.22.06,5.59,0,4.85.06,11.66.1,19.76V228h-.24l-21.77,0-21.77,0h-.24v-.23c0-8.1.07-14.92.09-19.76,0-2.37.05-4.25.07-5.59q0-.91,0-1.47a2.48,2.48,0,0,1,0-.51,4,4,0,0,1,0,.51q0,.56,0,1.47c0,1.34,0,3.22.07,5.59,0,4.84.05,11.66.09,19.76l-.23-.24,21.77,0,21.77,0-.23.24c0-8.1.07-14.91.1-19.76,0-2.37.05-4.25.06-5.59,0-.61,0-1.1,0-1.47A3.28,3.28,0,0,1,443.45,200.43Z" style="fill:#263238"></path><path d="M455.84,238.83c0,.14-15.38.26-34.36.26s-34.37-.12-34.37-.26,15.38-.26,34.37-.26S455.84,238.69,455.84,238.83Z" style="fill:#263238"></path><path d="M455.84,244.13c0,.15-15.38.26-34.36.26s-34.37-.11-34.37-.26,15.38-.26,34.37-.26S455.84,244,455.84,244.13Z" style="fill:#263238"></path><path d="M379.53,186.46l5.4,13.86a2.4,2.4,0,0,0,2.83,1.46h0a2.4,2.4,0,0,0,1.77-2.81l-2.95-14.71a1.89,1.89,0,0,0-2.45-1.42L380.69,184A1.89,1.89,0,0,0,379.53,186.46Z" style="fill:#e0e0e0"></path><path d="M394,208.54a3.62,3.62,0,1,1-3.57-3.66A3.62,3.62,0,0,1,394,208.54Z" style="fill:#e0e0e0"></path><path d="M459.39,205.49l.72-14.85a2.41,2.41,0,0,0-2-2.49h0a2.4,2.4,0,0,0-2.75,1.84l-3.31,14.64a1.9,1.9,0,0,0,1.66,2.3l3.6.35A1.9,1.9,0,0,0,459.39,205.49Z" style="fill:#e0e0e0"></path><path d="M455.14,179.41a3.62,3.62,0,1,1,1.77,4.81A3.62,3.62,0,0,1,455.14,179.41Z" style="fill:#e0e0e0"></path></g><g id="freepik--speech-bubble-1--inject-188"><polygon points="139.16 101.87 162.93 79.71 162.68 112.31 188.85 115.58 165.5 137.84 187.97 161.74 157.19 144.37 147.53 175.5 128.99 150.63 98.26 165.44 108.78 138.45 78.17 128.5 104.89 117.99 94.57 91.16 117.11 109.17 125.25 74.79 139.16 101.87" style="fill:#fff"></polygon><path d="M165.5,137.84s.54.55,1.55,1.61l4.46,4.69,17,17.93.58.62-.72-.45c-4.17-2.56-9-5.19-14.23-8s-11-5.87-16.91-9.48l.23-.09-9.9,30.85-.11.33-.21-.28c-5.78-7.83-12-16.21-18.47-25l.25.06L98.74,165.21l-.48.23.19-.5c3.19-8.43,6.6-17.41,10.08-26.59l.14.27-30.41-9.88-.6-.19.59-.23,23.16-8.94L105,118l-.12.31c-2.08-4.38-3.81-8.86-5.49-13.31s-3.24-8.91-4.74-13.35l-.24-.72.59.48,22.54,17.88-.35.12q2.08-9,4.08-17.68l1.93-8.62.9-4.26.42-2.12.19-1,.08-.53c0-.15,0-.39,0-.41l.31-.31.06.12,14.09,27.56-.31,0,23.63-22.46.3-.28v.4q0,18,0,32.47l-.13-.15,26,3.33.23,0-.16.16-17.38,16.56-4.51,4.28c-1,1-1.55,1.45-1.55,1.45l1.5-1.46,4.45-4.3,17.33-16.69.07.19-26-3.26h-.13v-.13q0-14.52-.1-32.47l.29.13-23.6,22.49-.19.18-.12-.23q-6.74-13.17-14.11-27.55l.37-.19a2,2,0,0,1,0,.65l-.08.54L125,76.8l-.42,2.12c-.3,1.42-.61,2.84-.91,4.27q-.95,4.28-1.92,8.63-2,8.69-4.07,17.68l-.08.34-.27-.21L94.73,91.75l.36-.25q2.25,6.65,4.74,13.33c1.67,4.45,3.4,8.92,5.47,13.27l.1.22-.23.09-3.6,1.39-23.15,8.94,0-.43,30.41,9.89.22.07-.08.2L98.84,165.1l-.29-.27,30.27-14.56.14-.07.1.13,18.44,25-.31,0c3.6-11.16,7-21.57,9.94-30.82l.06-.19.17.1c5.9,3.62,11.63,6.65,16.88,9.51s10,5.5,14.22,8.07l-.14.17-16.93-18.06-4.4-4.71Z" style="fill:#263238"></path><path d="M133.39,111.9l1.06,16.85A2.74,2.74,0,0,0,137,131.3h0a2.73,2.73,0,0,0,2.88-2.43l1.87-16.93a2.14,2.14,0,0,0-2.16-2.38l-4.11.06A2.13,2.13,0,0,0,133.39,111.9Z" style="fill:#FFFFFF"></path><path d="M141.49,140.78a4.11,4.11,0,1,1-2.61-5.2A4.12,4.12,0,0,1,141.49,140.78Z" style="fill:#FFFFFF"></path></g></svg>